HIERARCHY
ROOT pelvis
{
  OFFSET 0 100 0
  CHANNELS 6 Xposition Yposition Zposition Zrotation Xrotation Yrotation
  JOINT pelvis_right_femur
  {
    OFFSET -10.78128 -3.44521 -0.5502486
    CHANNELS 3 Zrotation Xrotation Yrotation
    JOINT right_femur_tibia
    {
      OFFSET -0.8047443 -44.0398 -0.1307829
      CHANNELS 3 Zrotation Xrotation Yrotation
      JOINT right_tibia_foot
      {
        OFFSET 3.006224 -47.83518 -5
        CHANNELS 3 Zrotation Xrotation Yrotation
        End Site
        {
          OFFSET 0 -5 15
        }
      }
    }
  }
  JOINT pelvis_left_femur
  {
    OFFSET 10.78128 -3.44521 -0.5502486
    CHANNELS 3 Zrotation Xrotation Yrotation
    JOINT left_femur_tibia
    {
      OFFSET 0.8047443 -44.0398 -0.1307829
      CHANNELS 3 Zrotation Xrotation Yrotation
      JOINT left_tibia_foot
      {
        OFFSET -4.370144 -48.10324 -4.275266
        CHANNELS 3 Zrotation Xrotation Yrotation
        End Site
        {
          OFFSET 0 -5 15
        }
      }
    }
  }
  JOINT pelvis_spine1
  {
    OFFSET 0 6.468898 -3.129235
    CHANNELS 3 Zrotation Xrotation Yrotation
    JOINT spine1
    {
      OFFSET 0 23.15396 4.99043
      CHANNELS 3 Zrotation Xrotation Yrotation
      JOINT spine2
      {
        OFFSET 0 20.79997 -5.064912
        CHANNELS 3 Zrotation Xrotation Yrotation
        JOINT neck
        {
          OFFSET 0 14.38658 9.616178
          CHANNELS 3 Zrotation Xrotation Yrotation
          End Site
          {
            OFFSET 0 20 0
          }
        }
      }
      JOINT right_manubrium
      {
        OFFSET -5.722621 16.35077 3.967754
        CHANNELS 3 Zrotation Xrotation Yrotation
        JOINT right_clavicle
        {
          OFFSET -13.16364 1.694482 -4.693211
          CHANNELS 3 Zrotation Xrotation Yrotation
          JOINT right_humerus
          {
            OFFSET -28.5034 -0.3100689 -2.792744
            CHANNELS 3 Zrotation Xrotation Yrotation
            JOINT right_radius
            {
              OFFSET -25.15693 0.02248979 -1.271978
              CHANNELS 3 Zrotation Xrotation Yrotation
              End Site
              {
                OFFSET -15 0 0
              }
            }
          }
        }
      }
      JOINT left_manubrium
      {
        OFFSET 5.722621 16.35077 3.967754
        CHANNELS 3 Zrotation Xrotation Yrotation
        JOINT left_clavicle
        {
          OFFSET 13.16364 1.694482 -4.693211
          CHANNELS 3 Zrotation Xrotation Yrotation
          JOINT left_humerus
          {
            OFFSET 29.39168 -1.063119 -2.237045
            CHANNELS 3 Zrotation Xrotation Yrotation
            JOINT left_radius
            {
              OFFSET 24.59957 -0.9528479 0.9047498
              CHANNELS 3 Zrotation Xrotation Yrotation
              End Site
              {
                OFFSET 15 -0 -0
              }
            }
          }
        }
      }
    }
  }
}
MOTION
Frames: 13
Frame Time: 0.0416666666667
1130.709 96.25885 2769.111 4.831555 -4.095029 37.30776 1.124151 16.86473 6.617938 -0 25.66631 -0 6.685311 -13.71979 -1.939176 0.1208089 -25.85806 -3.968475 -0 23.61995 -0 -7.585045 -8.141005 17.85235 -1.538313 0.2918802 9.440077 -1.151285 9.46971 -2.78977 2.346006 21.18564 5.84212 2.046512 -16.76764 7.788258 1.941781 -21.58759 11.23239 78.47208 23.96831 -4.378665 -0 0 26.42148 -27.06214 14.85211 14.31256 3.807079 -14.65311 -2.766397 -92.96665 22.81207 26.30607 0 0 -12.21035 -3.347499 6.012031 18.14229
1135.923 96.06461 2773.916 5.713166 -4.717364 37.42155 0.6523284 15.96048 6.295685 -0 33.34062 -0 7.353822 -11.35745 -2.997159 -1.342213 -22.56647 -5.287449 -0 25.03986 -0 -7.8461 -8.868843 17.793 -1.911449 0.2941784 8.907729 -1.430731 9.219969 -2.562045 2.611346 21.63962 5.694538 1.865141 -16.10182 8.086224 1.922155 -20.59942 10.83367 79.51444 23.44407 -4.633737 -0 0 25.30847 -26.696 14.74072 13.82186 3.68735 -13.93902 -2.851829 -92.71644 22.95736 25.35188 0 0 -10.39043 -3.394059 6.459794 17.7748
1141.116 96.3573 2778.702 6.508246 -5.278203 37.82171 0.3317361 14.26635 5.926263 -0 39.98184 -0 7.656683 -9.080521 -4.141056 -2.562535 -19.04499 -6.245349 -0 26.09424 -0 -7.88756 -9.636354 17.66636 -2.243781 0.3738561 8.260652 -1.574724 9.119408 -2.575015 2.753008 22.05339 5.544468 1.702216 -15.48391 8.212491 1.933458 -19.68182 10.52076 80.64912 23.06923 -5.229542 -0 0 24.00895 -26.11435 14.40448 13.35534 3.61641 -13.58848 -2.999952 -92.20806 23.06084 24.04138 0 0 -9.19341 -3.31952 6.738915 17.34264
1146.247 97.0254 2783.393 7.119437 -5.635359 38.45537 0.06943565 12.02124 5.565404 -0 45.38392 -0 7.760654 -7.048757 -5.201215 -3.531653 -15.63797 -6.926614 -0 26.38136 -0 -7.724764 -10.41443 17.42376 -2.536181 0.4615487 7.60755 -1.616902 9.131746 -2.778518 2.775447 22.34957 5.494808 1.572387 -15.02722 8.288227 2.030615 -18.91565 10.31968 81.68372 23.04385 -6.057396 -0 0 22.70051 -25.66485 14.22535 13.06126 3.569663 -13.54576 -3.190661 -91.51849 23.17502 22.65803 0 0 -8.755268 -3.236662 6.891587 17.03819
1151.292 97.9422 2787.926 7.544952 -5.774679 39.28959 -0.1693698 9.271558 5.215532 -0 49.66822 -0 7.762415 -5.308303 -6.153123 -4.310241 -12.34101 -7.432066 -0 25.8771 -0 -7.398353 -11.22273 17.06191 -2.795249 0.5379304 6.972075 -1.580849 9.222052 -3.1377 2.692187 22.52172 5.580689 1.475913 -14.72376 8.373975 2.233939 -18.27883 10.21738 82.58576 23.42709 -7.089294 -0 0 21.42227 -25.44449 14.35126 12.94516 3.548317 -13.75823 -3.414602 -90.66972 23.29941 21.24909 0 0 -9.04179 -3.179743 6.964015 16.88178
1156.226 98.97879 2792.244 7.781164 -5.703051 40.29672 -0.3930803 5.964199 4.861512 -0 52.84628 -0 7.700885 -3.943639 -6.99683 -4.94292 -9.065495 -7.838634 -0 24.56108 -0 -6.943273 -12.09896 16.58201 -3.023757 0.5988673 6.352184 -1.474162 9.356625 -3.639929 2.510326 22.57631 5.817507 1.413092 -14.54246 8.499191 2.552302 -17.73417 10.19433 83.36494 24.25911 -8.336428 -0 0 20.1839 -25.45663 14.83561 12.97649 3.569735 -14.20421 -3.663868 -89.65959 23.43161 19.78201 0 0 -10.03521 -3.158063 6.994632 16.85174
1161.014 99.99859 2796.296 7.794981 -5.41692 41.44242 -0.5982618 2.02889 4.481957 -0 54.73734 -0 7.559437 -3.086889 -7.711003 -5.450807 -5.731171 -8.216325 -0 22.36496 -0 -6.389661 -13.08213 15.98798 -3.220693 0.6384023 5.743216 -1.291964 9.497154 -4.284151 2.231592 22.51865 6.217706 1.392101 -14.46807 8.678923 2.991211 -17.25294 10.23193 84.03871 25.59983 -9.82776 -0 0 18.99415 -25.66655 15.6894 13.11949 3.658162 -14.88353 -3.924891 -88.49406 23.59343 18.22352 0 0 -11.75092 -3.183409 7.027563 16.93491
1165.609 100.8533 2800.032 7.525776 -4.90971 42.6782 -0.7684998 -2.572605 4.052951 -0 54.98463 -0 7.254199 -2.884855 -8.239347 -5.836953 -2.275297 -8.65503 -0 19.23574 -0 -5.781551 -14.20883 15.29949 -3.377317 0.6462806 5.139903 -1.022802 9.592894 -5.064537 1.862039 22.36162 6.785876 1.433071 -14.51346 8.917742 3.543214 -16.81471 10.30872 84.64394 27.501 -11.60105 -0 0 17.85953 -25.98326 16.86152 13.3175 3.840796 -15.79925 -4.176192 -87.22033 23.85983 16.57528 0 0 -14.1917 -3.281833 7.134734 17.1417
1169.943 101.3922 2803.418 6.896755 -4.191088 43.93684 -0.8603214 -7.794914 3.554883 -0 53.12546 -0 6.610237 -3.419422 -8.485971 -6.084812 1.342033 -9.285874 -0 15.27092 -0 -5.204718 -15.50872 14.56678 -3.467449 0.6114774 4.532505 -0.6577686 9.57526 -5.947458 1.427981 22.14305 7.499172 1.571978 -14.73442 9.204192 4.16788 -16.40619 10.39554 85.25953 29.93152 -13.68922 -0 0 16.77351 -26.20014 18.17783 13.4509 4.141066 -16.93389 -4.38939 -85.97022 24.40362 14.9142 0 0 -17.27089 -3.499018 7.443179 17.51898
1173.939 101.4969 2806.453 5.839287 -3.313426 45.1355 -0.7739182 -13.46246 2.992788 -0 48.80088 -0 5.361473 -4.554427 -8.334217 -6.146643 5.106494 -10.26781 -0 10.94131 -0 -4.817134 -16.99349 13.86815 -3.432653 0.5327669 3.903447 -0.2059947 9.364964 -6.843607 0.998133 21.94022 8.271864 1.856495 -15.24491 9.499265 4.767537 -16.02215 10.454 86.01289 32.65093 -16.08276 -0 0 15.70422 -25.92929 19.27401 13.28665 4.564184 -18.21808 -4.533644 -84.99903 25.51819 13.43938 0 0 -20.70996 -3.884381 8.146508 18.14917
1177.552 101.1412 2809.211 4.337216 -2.389097 46.19879 -0.3326963 -19.26498 2.434859 -0 42.16446 -0 3.283836 -5.752168 -7.723254 -5.936726 8.858742 -11.6544 -0 7.306784 -0 -4.837447 -18.61937 13.24907 -3.181845 0.4350202 3.240789 0.2889477 8.914092 -7.604486 0.6953079 21.84209 8.927266 2.310182 -16.19084 9.738138 5.188348 -15.66223 10.44682 87.01563 35.1194 -18.64672 -0 0 14.59698 -24.70948 19.66769 12.53577 5.07685 -19.50807 -4.578348 -84.63745 27.45113 12.45896 0 0 -23.9842 -4.408405 9.419063 19.06532
1180.87 100.432 2811.893 2.513729 -1.564656 47.10718 0.6184371 -24.76047 2.020674 -0 34.18371 -0 0.5948525 -6.097396 -6.797961 -5.400619 12.16699 -13.05838 -0 5.869755 -0 -5.384175 -20.1678 12.60905 -2.665611 0.3738782 2.592131 0.7580751 8.302183 -8.106792 0.6457321 21.83088 9.25942 2.848373 -17.58315 9.87706 5.296168 -15.30411 10.36904 88.22942 36.70792 -21.05341 -0 0 13.39494 -22.6072 19.23093 11.22261 5.602712 -20.62659 -4.490716 -84.96314 29.80702 12.10869 0 0 -26.50648 -4.771889 11.11308 19.9645
1184.209 99.53525 2814.836 0.8110012 -0.962912 47.91999 1.877325 -29.16036 1.807034 -0 26.0844 -0 -1.655983 -4.836462 -6.036501 -4.713037 14.43255 -13.43406 -0 7.768462 -0 -6.180831 -21.07496 11.75847 -2.049669 0.3939354 2.120626 1.150438 7.821913 -8.393058 0.8417499 21.69557 9.218743 3.241234 -18.98231 9.92514 5.092305 -14.85196 10.27885 89.47479 37.22326 -22.95424 -0 0 12.01577 -20.91053 18.81171 10.07012 6.06846 -21.49861 -4.278983 -85.2005 30.98225 11.70478 0 0 -28.10705 -4.301203 12.41512 19.91136
